<?xml version="1.0" standalone="no"?>
<!DOCTYPE svg PUBLIC "-//W3C//DTD SVG 20010904//EN"
 "http://www.w3.org/TR/2001/REC-SVG-20010904/DTD/svg10.dtd">
<svg version="1.0" xmlns="http://www.w3.org/2000/svg"
 width="512.000000pt" height="512.000000pt" viewBox="0 0 512.000000 512.000000"
 preserveAspectRatio="xMidYMid meet">

<g transform="translate(0.000000,512.000000) scale(0.100000,-0.100000)"
fill="#000000" stroke="none">
<path d="M1592 4734 c-25 -15 -50 -41 -62 -64 -19 -37 -20 -60 -20 -440 l0
-400 -89 0 c-109 0 -145 -11 -162 -52 -10 -26 -10 -35 2 -57 23 -40 55 -51
157 -51 l92 0 0 -109 0 -110 -202 -3 c-191 -3 -205 -4 -240 -26 -20 -13 -47
-40 -60 -60 -23 -37 -23 -38 -23 -418 l0 -380 25 -37 c13 -20 43 -46 65 -59
37 -22 53 -23 238 -26 l197 -4 0 -144 0 -144 -176 0 c-96 0 -195 -5 -219 -11
-55 -14 -111 -69 -126 -121 -6 -24 -9 -171 -7 -396 3 -353 3 -357 26 -394 13
-20 40 -47 60 -60 35 -22 49 -23 240 -26 l202 -3 0 -110 0 -109 -350 0 -350 0
2 1373 3 1372 65 2 c105 4 150 13 171 34 24 24 24 70 0 100 -18 23 -25 24
-138 24 -91 0 -125 -4 -148 -17 -42 -23 -80 -67 -94 -107 -8 -24 -11 -282 -12
-900 l0 -866 -82 165 c-74 148 -86 167 -119 183 -47 23 -99 15 -135 -22 -26
-26 -300 -603 -310 -651 -10 -54 19 -92 170 -221 l146 -124 1 -177 0 -176
-112 -4 c-131 -4 -162 -18 -197 -91 -18 -37 -21 -62 -21 -180 0 -146 7 -176
48 -221 53 -57 48 -56 595 -56 l504 0 21 23 c29 31 29 77 -1 105 -23 22 -26
22 -518 24 l-494 3 0 120 0 120 2405 0 2405 0 3 -100 c2 -55 0 -110 -3 -122
l-5 -23 -1771 0 -1770 0 -24 -25 c-32 -31 -32 -69 0 -100 l24 -25 1781 0
c1938 0 1816 -4 1872 56 41 45 48 75 48 223 0 125 -2 142 -23 182 -37 70 -80
89 -204 89 l-103 0 0 178 1 177 146 124 c151 129 180 167 170 221 -10 48 -284
625 -310 651 -36 37 -88 45 -135 22 -33 -16 -45 -35 -119 -183 l-81 -165 -4
558 -3 559 -24 19 c-30 25 -72 24 -99 -1 l-22 -21 0 -1064 0 -1065 -350 0
-350 0 0 109 0 110 203 3 c202 3 204 3 244 30 24 16 49 44 62 70 20 43 21 58
21 394 0 211 -4 364 -11 386 -14 51 -69 103 -124 117 -24 6 -123 11 -219 11
l-176 0 0 144 0 144 198 4 c188 3 199 4 240 28 24 13 53 40 65 60 21 34 22 44
25 403 3 361 2 370 -19 414 -13 27 -37 55 -62 71 -40 27 -42 27 -244 30 l-203
3 0 110 0 109 344 0 c304 0 345 -2 350 -16 3 -9 6 -89 6 -179 0 -156 1 -165
22 -185 27 -25 69 -26 99 -1 23 19 24 24 27 189 4 186 -4 234 -44 282 -55 65
-53 65 -446 68 l-358 3 0 401 c0 396 0 401 -22 440 -13 22 -41 51 -64 64 l-41
24 -924 0 -924 0 -43 -26z m1866 -1971 l2 -1843 -220 0 -220 0 0 325 0 325 30
0 c36 0 97 29 123 58 43 47 59 162 36 247 -14 51 -73 110 -124 124 -54 15
-995 15 -1048 0 -52 -14 -111 -69 -125 -117 -25 -84 -8 -206 35 -254 26 -29
87 -58 123 -58 l30 0 0 -325 0 -325 -220 0 -220 0 0 1838 c0 1011 3 1842 7
1845 3 4 407 6 897 5 l891 -3 3 -1842z m-2026 527 l68 0 0 -135 0 -135 -185 0
-185 0 0 128 c0 89 4 132 13 141 9 10 37 12 116 7 57 -3 135 -6 173 -6z m2546
-2 c8 -8 12 -54 12 -140 l0 -128 -190 0 -190 0 0 133 c0 74 3 137 7 140 12 13
348 8 361 -5z m-2478 -553 l0 -135 -179 0 c-154 0 -180 2 -185 16 -3 9 -6 69
-6 135 l0 119 185 0 185 0 0 -135z m2490 16 c0 -66 -3 -126 -6 -135 -5 -14
-32 -16 -190 -16 l-184 0 0 135 0 135 190 0 190 0 0 -119z m-3461 -905 c62
-131 111 -242 109 -246 -2 -4 -54 -51 -116 -104 l-112 -97 -24 18 c-14 10 -67
54 -120 98 -68 58 -93 85 -90 97 14 49 228 488 235 481 4 -4 57 -115 118 -247z
m4294 29 c49 -104 97 -209 108 -232 l18 -42 -102 -88 c-56 -49 -110 -94 -119
-101 -15 -12 -30 -2 -125 78 -59 50 -112 97 -117 103 -5 8 18 68 62 162 174
372 163 351 175 330 6 -11 51 -105 100 -210z m-3323 -20 l0 -135 -185 0 -185
0 0 119 c0 66 3 126 6 135 5 14 31 16 185 16 l179 0 0 -135z m2484 119 c3 -9
6 -69 6 -135 l0 -119 -190 0 -190 0 0 135 0 135 184 0 c158 0 185 -2 190 -16z
m-926 -186 l-3 -63 -494 -3 c-389 -2 -496 0 -503 10 -4 7 -8 30 -8 50 0 74
-43 68 512 68 l499 0 -3 -62z m-1558 -351 l0 -134 -171 -7 c-124 -5 -175 -4
-185 5 -11 9 -14 42 -14 140 l0 129 185 0 185 0 0 -133z m980 -192 l0 -325
-115 0 -115 0 0 325 0 325 115 0 115 0 0 -325z m390 0 l0 -325 -115 0 -115 0
0 325 0 325 115 0 115 0 0 -325z m1120 196 c0 -97 -3 -131 -14 -140 -9 -8 -68
-11 -187 -9 l-174 3 -3 138 -3 137 191 0 190 0 0 -129z m-3330 -281 l0 -251
-87 3 -88 3 -3 172 -2 172 87 75 c48 42 89 76 90 76 2 0 3 -113 3 -250z m3929
144 l51 -46 -2 -172 -3 -171 -87 -3 -88 -3 0 251 0 252 39 -31 c21 -17 62 -52
90 -77z"/>
<path d="M1916 4396 c-50 -19 -94 -62 -107 -106 -6 -21 -9 -113 -7 -231 l3
-196 28 -36 c52 -68 68 -72 292 -72 224 0 240 4 292 72 l28 36 0 217 0 217
-28 36 c-51 67 -70 72 -277 74 -140 2 -194 -1 -224 -11z m362 -142 c22 -6 22
-9 22 -174 0 -198 18 -180 -175 -180 -193 0 -175 -18 -175 180 0 152 2 169 18
173 26 7 284 8 310 1z"/>
<path d="M2785 4395 c-48 -17 -102 -76 -110 -119 -4 -17 -5 -117 -3 -222 l3
-191 28 -36 c50 -66 71 -72 268 -75 108 -2 192 1 217 7 51 14 100 55 118 98
20 46 20 400 0 446 -17 42 -66 83 -114 97 -57 15 -359 12 -407 -5z m363 -141
c22 -6 22 -9 22 -174 0 -198 18 -180 -175 -180 -193 0 -175 -18 -175 180 0
152 2 169 18 173 26 7 284 8 310 1z"/>
<path d="M1935 3631 c-47 -12 -72 -28 -102 -68 l-28 -36 -3 -191 c-4 -220 -1
-244 35 -287 51 -60 87 -69 288 -69 195 0 234 9 282 61 38 42 43 73 43 272 0
180 -2 194 -23 231 -27 48 -62 75 -113 86 -46 11 -335 11 -379 1z m363 -320
c2 -125 -1 -166 -10 -173 -15 -9 -299 -11 -322 -2 -14 5 -16 30 -16 168 0 90
3 166 7 170 4 3 81 5 172 4 l166 -3 3 -164z"/>
<path d="M2805 3631 c-47 -12 -72 -28 -102 -68 l-28 -36 -3 -191 c-4 -220 -1
-244 35 -287 51 -60 87 -69 288 -69 201 0 237 9 288 69 36 43 39 67 35 287
l-3 191 -28 36 c-50 66 -70 71 -272 74 -99 1 -193 -2 -210 -6z m363 -320 c2
-125 -1 -166 -10 -173 -15 -9 -299 -11 -322 -2 -14 5 -16 30 -16 168 0 90 3
166 7 170 4 3 81 5 172 4 l166 -3 3 -164z"/>
<path d="M1910 2853 c-36 -14 -72 -47 -90 -83 -18 -35 -20 -60 -20 -229 0
-202 5 -228 48 -275 48 -51 74 -56 276 -56 196 0 223 5 270 48 51 48 56 74 56
282 0 214 -8 246 -72 292 -32 22 -41 23 -243 25 -115 1 -217 -1 -225 -4z m385
-318 l0 -170 -170 0 -170 0 -3 160 c-1 87 0 165 3 172 3 11 41 13 172 11 l168
-3 0 -170z"/>
<path d="M2780 2853 c-35 -13 -72 -47 -90 -83 -18 -35 -20 -60 -20 -229 0
-110 4 -202 11 -218 14 -38 57 -83 96 -99 45 -20 390 -20 436 0 37 15 94 76
102 109 4 13 5 113 3 223 -3 200 -3 201 -30 236 -48 63 -71 68 -295 67 -109 0
-205 -3 -213 -6z m385 -318 l0 -170 -170 0 -170 0 -3 160 c-1 87 0 165 3 172
3 11 41 13 172 11 l168 -3 0 -170z"/>
</g>
</svg>
